# xmcd
#
# Track frame offsets:
# 150
# 27856
# 50010
# 64246
# 81093
# 97394
# 114279
# 129076
# 187677
#
# Disc length: 4390 seconds
#
#
# Revision: 3
# Processed by: cddbd v1.5.1PL2 Copyright (c) Steve Scherf et al.
# Submitted via: FreeRIP 2.944 
#
DISCID=6f112409
DTITLE=Various Artist - Rhymesayers 2005 Label Sampler
DYEAR=2005
DGENRE=Hip-Hop
TTITLE0=Brother Ali - Rain Water
TTITLE1=Blueprint - Boom Box
TTITLE2=Grayskull - Prom Quiz
TTITLE3=Boom Bap Project - Wyle Out
TTITLE4=MF Doom - Deep Fried Frenz
TTITLE5=Felt - Dirty Girl
TTITLE6=P.O.S. - P. O. S. Is Ruining My Life
TTITLE7=I Self Divine - Overthrow
TTITLE8=Data Track (Videos)
EXTD=
EXTT0=
EXTT1=
EXTT2=
EXTT3=
EXTT4=
EXTT5=
EXTT6=
EXTT7=
EXTT8=
PLAYORDER=
